inDegrees=yes
name=ik_S53_A01_T01
DataType=double
version=3
OpenSimVersion=4.3-2021-08-27-4bc7ad9
endheader
time	pelvis_tilt	pelvis_list	pelvis_rotation	pelvis_tx	pelvis_ty	pelvis_tz	hip_flexion_r	hip_adduction_r	hip_rotation_r	knee_angle_r	knee_angle_r_beta	ankle_angle_r	subtalar_angle_r	mtp_angle_r	hip_flexion_l	hip_adduction_l	hip_rotation_l	knee_angle_l	knee_angle_l_beta	ankle_angle_l	subtalar_angle_l	mtp_angle_l	lumbar_extension	lumbar_bending	lumbar_rotation	arm_flex_r	arm_add_r	arm_rot_r	elbow_flex_r	pro_sup_r	wrist_flex_r	wrist_dev_r	arm_flex_l	arm_add_l	arm_rot_l	elbow_flex_l	pro_sup_l	wrist_flex_l	wrist_dev_l
12.08333333333351	1.902103146858182	-2.663943384249932	102.9194534333092	0	0.9399999999999999	0	6.42451105112593	1.901100111397589	-11.19841762251504	-8.58820669588661	-0.1498924836850447	0	0	0	-3.319351824226273	-6.421627180848077	-7.861892295238347	25.12169813406016	0.4384563461314656	0	0	0	0	0	0	31.22354147624416	-31.22354147624415	4.363776217523458	76.4534811460346	85.63622402713119	0	0	31.22354147624416	-31.22354147624415	4.363776217523458	76.4534811460346	85.63622402701198	0	0
12.10000000000018	2.296028466323832	-2.598106347066256	103.3438110055687	0	0.9399999999999999	0	5.079083231116305	2.560477079914455	-11.24255964216567	-9.025685021869309	-0.1575279208795559	0	0	0	-2.232390470368915	-7.151754658524073	-7.739352158214864	26.44130939809683	0.4614879075353098	0	0	0	0	0	0	31.22671973657523	-31.22671973657523	4.364067917783863	76.45743084136517	85.63593232688571	0	0	31.22671973657523	-31.22671973657523	4.364067917783863	76.45743084136517	85.63593232676659	0	0
12.11666666666685	2.61152679881799	-2.48681191225632	103.5351025227026	0	0.9399999999999999	0	4.5327352612393	2.925894496706517	-10.9154362434617	-9.510640134524907	-0.165991984319776	0	0	0	-1.19808174953772	-7.89326318489916	-8.101709196002487	27.6461113005555	0.4825156675675051	0	0	0	0	0	0	31.22924380014907	-31.22924380014906	4.364300283221505	76.46057736144729	85.63569996145998	0	0	31.22924380014907	-31.22924380014906	4.364300283221505	76.46057736144729	85.63569996134095	0	0
12.13333333333352	2.719584536651934	-2.313612842301569	103.5527134283857	0	0.9399999999999999	0	3.635266318868465	3.062700051982918	-10.22779306131333	-9.043610007510175	-0.1578407708973616	0	0	0	-0.1020803458367512	-8.201974587328648	-8.174069255783806	28.84900522109695	0.5035101270331764	0	0	0	0	0	0	31.23352063139151	-31.23352063139151	4.36469365195906	76.46590389641273	85.63530659274269	0	0	31.23352063139151	-31.23352063139151	4.36469365195906	76.46590389641273	85.63530659262368	0	0
12.15000000000018	2.580545033687234	-2.28747032685757	103.3711097052762	0	0.9399999999999999	0	3.098154134975586	2.995048547858694	-9.470264331212173	-9.487207767002971	-0.1655830123549809	0	0	0	-0.2847745059094485	-8.291761342871647	-8.86846222705508	27.78838185849992	0.4849987572322847	0	0	0	0	0	0	31.23600493968699	-31.23600493968698	4.364922316782371	76.46900025542601	85.63507792793114	0	0	31.23600493968699	-31.23600493968698	4.364922316782371	76.46900025542601	85.63507792781213	0	0
12.16666666666685	2.284088039139545	-2.419821534654667	103.0658319083946	0	0.9399999999999999	0	2.870731633211082	2.740030908143455	-8.50491938012633	-9.714343881984568	-0.1695472854115982	0	0	0	1.061421717298931	-8.146524805484843	-9.091674335743127	28.3699423692257	0.4951489029440294	0	0	0	0	0	0	31.25202151835884	-31.25202151835883	4.366227180505935	76.48661333056836	85.63377306427333	0	0	31.25202151835884	-31.25202151835883	4.366227180505935	76.48661333056836	85.63377306415462	0	0
12.18333333333352	2.007699009058272	-2.61652504477762	102.8719043317902	0	0.9399999999999999	0	2.714327104614457	2.432638884759303	-8.023154012534519	-8.977504328736426	-0.156687009148494	0	0	0	2.683102554408187	-7.956328400320491	-9.077115139756204	28.02533188257933	0.4891343153151502	0	0	0	0	0	0	31.28950798894201	-31.289507988942	4.369170150657871	76.52630131528959	85.63083009426892	0	0	31.28950798894201	-31.289507988942	4.369170150657871	76.52630131528959	85.63083009415077	0	0
12.20000000000019	2.017380586697675	-2.60668804168191	102.9059169015913	0	0.9399999999999999	0	2.304515398485692	2.579489801997906	-6.724497834947497	-8.851435298432946	-0.1544866894849018	0	0	0	4.338902805600452	-7.891333434884928	-8.641471861409668	27.23850608452402	0.475401614499453	0	0	0	0	0	0	31.31929665254446	-31.31929665254445	4.371527645770862	76.55809995969013	85.62847259927425	0	0	31.31929665254446	-31.31929665254445	4.371527645770862	76.55809995969013	85.62847259915655	0	0
12.21666666666685	1.723511831907052	-2.763392927949282	102.8119199730609	0	0.9399999999999999	0	2.218736987125257	2.374006561857954	-5.188433699635029	-8.463781743645084	-0.1477208585967934	0	0	0	6.032149713205435	-7.249059422931447	-8.029078881463168	25.72286418895292	0.4489486731405692	0	0	0	0	0	0	31.36452908738097	-31.36452908738096	4.375106866604626	76.60637724185614	85.62489337862009	0	0	31.36452908738097	-31.36452908738096	4.375106866604626	76.60637724185614	85.62489337850312	0	0
12.23333333333352	1.584962453681809	-2.80478447657123	102.8026856893527	0	0.9399999999999999	0	2.125269799044797	2.340996600912865	-4.126493274301779	-7.927416089923785	-0.1383595119447449	0	0	0	7.749287934800551	-6.623581629578899	-6.961188513697969	24.04016906747306	0.4195801029634998	0	0	0	0	0	0	31.42022873789144	-31.42022873789144	4.37951618574128	76.66585053473209	85.62048405970472	0	0	31.42022873789144	-31.42022873789144	4.37951618574128	76.66585053473209	85.62048405958858	0	0
12.25000000000019	1.33334643365342	-2.811767351573013	102.7746705887917	0	0.9399999999999999	0	1.816014409793552	2.21991302809939	-3.274419685285749	-7.558027153904361	-0.1319124587907673	0	0	0	9.389044724653271	-5.789575476702781	-5.827667367879918	22.01318569298502	0.3842025691954982	0	0	0	0	0	0	31.46847625299477	-31.46847625299477	4.383340952145331	76.71744054202837	85.61665929349262	0	0	31.46847625299477	-31.46847625299477	4.383340952145331	76.71744054202837	85.61665929337725	0	0
12.26666666666686	1.027731041930897	-2.725904343735411	102.7034227224335	0	0.9399999999999999	0	1.68264529820025	1.913414000834297	-3.104529834684517	-6.831976744836314	-0.1192404886170782	0	0	0	10.76632692748592	-5.073542217385062	-5.072674564671819	19.91407151447763	0.3475661154052482	0	0	0	0	0	0	31.51900260269457	-31.51900260269456	4.387326434711667	76.77119106346433	85.61267381112616	0	0	31.51900260269457	-31.51900260269456	4.387326434711667	76.77119106346433	85.61267381101155	0	0
12.28333333333352	0.9762447767880054	-2.700801720721663	102.6889885063731	0	0.9399999999999999	0	1.185264411521299	1.944517095349868	-2.686046818040575	-6.709803985757046	-0.1171081717148992	0	0	0	12.0690806038699	-4.881208347077573	-4.725002534490587	19.3538413590271	0.3377882546236769	0	0	0	0	0	0	31.54717394436675	-31.54717394436675	4.389604424916802	76.80192981393786	85.61039582103568	0	0	31.54717394436675	-31.54717394436675	4.389604424916802	76.80192981393786	85.61039582092148	0	0
12.30000000000019	0.879825558852245	-2.665150273264341	102.6477417818237	0	0.9399999999999999	0	0.6371651215833952	1.880606007560329	-2.410879767310836	-6.594649615118069	-0.1150983487991871	0	0	0	11.99257005914476	-4.797096940732406	-4.774560072701785	19.33322855135773	0.337428493261766	0	0	0	0	0	0	31.54847926604857	-31.54847926604856	4.389722232431814	76.80352368094309	85.6102780135267	0	0	31.54847926604857	-31.54847926604856	4.389722232431814	76.80352368094309	85.61027801341253	0	0
12.31666666666686	0.8899127630026691	-2.688474457309046	102.5684345724332	0	0.9399999999999999	0	0.04359054626184623	1.867420284972266	-2.270148638698247	-6.637767821318898	-0.1158509034649454	0	0	0	12.10538630437879	-4.548043705688278	-4.689772746756216	15.79322154196545	0.2756437154041929	0	0	0	0	0	0	31.55032801646987	-31.55032801646986	4.389967268676254	76.80685837237509	85.61003297729526	0	0	31.55032801646987	-31.55032801646986	4.389967268676254	76.80685837237509	85.61003297718111	0	0
12.33333333333353	0.9436537117439464	-2.762460740295057	102.3890848812907	0	0.9399999999999999	0	-0.5793274284874642	1.877395182492708	-2.034978741293731	-7.264132114311492	-0.1267830226945926	0	0	0	13.26476210784615	-4.424459779963188	-4.91862361093449	13.26609586157366	0.2315370516696543	0	0	0	0	0	0	31.54040255893068	-31.54040255893067	4.389272419463222	76.79751512042124	85.61072782647412	0	0	31.54040255893068	-31.54040255893067	4.389272419463222	76.79751512042124	85.61072782635983	0	0
12.35000000000019	0.9455214712698695	-2.759487476044109	102.3903086785811	0	0.9399999999999999	0	-0.5906733814776662	1.877615724083067	-2.095981192544786	-6.753047534216422	-0.117862914015761	0	0	0	13.35912493682803	-4.180155479433687	-4.798354751923164	9.861113780444498	0.1721089033825417	0	0	0	0	0	0	31.54728452291325	-31.54728452291323	4.389880082254281	76.80573033430043	85.61012016371406	0	0	31.54728452291325	-31.54728452291323	4.389880082254281	76.80573033430043	85.61012016359985	0	0
12.36666666666686	0.9976045323681719	-2.826213724613567	102.1348276985139	0	0.9399999999999999	0	-1.293095875816245	1.884237052388505	-1.975449965783802	-6.912078712391665	-0.1206385316882447	0	0	0	15.00501339861662	-4.263086939949582	-5.488889484195568	8.166035579106993	0.1425242076904189	0	0	0	0	0	0	31.55881970809485	-31.55881970809483	4.390836928031107	76.81864858750659	85.60916331798553	0	0	31.55881970809485	-31.55881970809483	4.390836928031107	76.81864858750659	85.60916331787149	0	0
